# xmcd
#
# Track frame offsets: 
#        150
#        2340
#        30598
#        67285
#        102393
#        105876
#        141289
#        167443
#        177516
#        205448
#        218600
#        242456
#        252215
#        284276
#
# Disc length: 4189 seconds
#
# Revision: 5
# Processed by: cddbd v1.5.2PL0 Copyright (c) Steve Scherf et al.
# Submitted via: ExactAudioCopy v0.99pb4
#
DISCID=bd105b0e
DTITLE=Rekid - Made In Menorca
DYEAR=2006
DGENRE=Leftfield, Deep House, Disco
TTITLE0=Intro
TTITLE1=Lost Star6
TTITLE2=Diamond Black
TTITLE3=85 Space
TTITLE4=Kidbeats
TTITLE5=Retro Active
TTITLE6=Priya
TTITLE7=Arp
TTITLE8=Tranzit
TTITLE9=Nite
TTITLE10=Klaws
TTITLE11=Spiders
TTITLE12=Cairo
TTITLE13=Legend
EXTD=
EXTT0=
EXTT1=
EXTT2=
EXTT3=
EXTT4=
EXTT5=
EXTT6=
EXTT7=
EXTT8=
EXTT9=
EXTT10=
EXTT11=
EXTT12=
EXTT13=
PLAYORDER=
